# Blender v3.0.1 OBJ File: 'bowl2.blend'
# www.blender.org
mtllib bowl.mtl
o Cube_Cube.001
v -5.069281 -0.031654 3.951249
v -5.069281 0.748725 3.951249
v -5.069281 -0.031654 0.000000
v -5.069281 0.358536 3.951249
v -5.069281 0.748725 0.000000
v -5.026382 5.183230 0.000000
v 0.000000 5.183230 5.978826
v 0.000000 -0.031654 3.951249
v 0.000000 0.748725 3.951249
v 0.000000 0.748725 0.000000
v 0.000000 -0.031654 0.000000
v 0.000000 0.358536 3.951249
v 0.000000 5.183230 5.015711
v -5.069281 0.358536 0.000000
v -5.069281 -0.031654 1.975625
v -5.069281 0.553630 3.951249
v -4.013873 0.748725 3.951249
v -5.069281 0.163441 3.951249
v -5.069281 0.748725 2.988134
v -2.534640 -0.031654 3.951249
v 0.000000 0.748725 2.988134
v -6.081790 5.183230 0.000000
v -4.013873 0.748725 0.000000
v 0.000000 -0.031654 1.975625
v -6.081790 5.183230 5.015711
v -2.534640 -0.031654 0.000000
v -2.534640 0.358536 3.951249
v 0.000000 0.163441 3.951249
v 0.000000 0.553630 3.951249
v -6.081790 5.183230 5.978826
v -5.026382 5.183230 5.978826
v -5.069281 0.358536 1.975625
v -5.069281 0.163441 0.000000
v -5.069281 0.553630 0.000000
v -5.069281 0.553630 1.975625
v -5.069281 0.163441 1.975625
v -2.534640 0.163441 3.951249
v -2.534640 -0.031654 1.975625
v -4.013873 0.748725 2.988134
v -2.534640 0.553630 3.951249
v -5.026382 5.183230 5.015711
v 5.069281 -0.031654 3.951249
v 5.069281 0.748725 3.951249
v 5.069281 -0.031654 0.000000
v 5.069281 0.358536 3.951249
v 5.069281 0.748725 0.000000
v 5.026382 5.183230 0.000000
v 5.069281 0.358536 0.000000
v 5.069281 -0.031654 1.975625
v 5.069281 0.553630 3.951249
v 4.013873 0.748725 3.951249
v 5.069281 0.163441 3.951249
v 5.069281 0.748725 2.988134
v 2.534640 -0.031654 3.951249
v 6.081790 5.183230 0.000000
v 4.013873 0.748725 0.000000
v 6.081790 5.183230 5.015711
v 2.534640 -0.031654 0.000000
v 2.534640 0.358536 3.951249
v 6.081790 5.183230 5.978826
v 5.026382 5.183230 5.978826
v 5.069281 0.358536 1.975625
v 5.069281 0.163441 0.000000
v 5.069281 0.553630 0.000000
v 5.069281 0.553630 1.975625
v 5.069281 0.163441 1.975625
v 2.534640 0.163441 3.951249
v 2.534640 -0.031654 1.975625
v 4.013873 0.748725 2.988134
v 2.534640 0.553630 3.951249
v 5.026382 5.183230 5.015711
v -5.069281 -0.031654 -3.951249
v -5.069281 0.748725 -3.951249
v -5.069281 0.358536 -3.951249
v 0.000000 5.183230 -5.978826
v 0.000000 -0.031654 -3.951249
v 0.000000 0.748725 -3.951249
v 0.000000 0.358536 -3.951249
v 0.000000 5.183230 -5.015711
v -5.069281 -0.031654 -1.975625
v -5.069281 0.553630 -3.951249
v -4.013873 0.748725 -3.951249
v -5.069281 0.163441 -3.951249
v -5.069281 0.748725 -2.988134
v -2.534640 -0.031654 -3.951249
v 0.000000 0.748725 -2.988134
v 0.000000 -0.031654 -1.975625
v -6.081790 5.183230 -5.015711
v -2.534640 0.358536 -3.951249
v 0.000000 0.163441 -3.951249
v 0.000000 0.553630 -3.951249
v -6.081790 5.183230 -5.978826
v -5.026382 5.183230 -5.978826
v -5.069281 0.358536 -1.975625
v -5.069281 0.553630 -1.975625
v -5.069281 0.163441 -1.975625
v -2.534640 0.163441 -3.951249
v -2.534640 -0.031654 -1.975625
v -4.013873 0.748725 -2.988134
v -2.534640 0.553630 -3.951249
v -5.026382 5.183230 -5.015711
v 5.069281 -0.031654 -3.951249
v 5.069281 0.748725 -3.951249
v 5.069281 0.358536 -3.951249
v 5.069281 -0.031654 -1.975625
v 5.069281 0.553630 -3.951249
v 4.013873 0.748725 -3.951249
v 5.069281 0.163441 -3.951249
v 5.069281 0.748725 -2.988134
v 2.534640 -0.031654 -3.951249
v 6.081790 5.183230 -5.015711
v 2.534640 0.358536 -3.951249
v 6.081790 5.183230 -5.978826
v 5.026382 5.183230 -5.978826
v 5.069281 0.358536 -1.975625
v 5.069281 0.553630 -1.975625
v 5.069281 0.163441 -1.975625
v 2.534640 0.163441 -3.951249
v 2.534640 -0.031654 -1.975625
v 4.013873 0.748725 -2.988134
v 2.534640 0.553630 -3.951249
v 5.026382 5.183230 -5.015711
vt 0.562500 0.937500
vt 0.625000 0.937500
vt 0.625000 1.000000
vt 0.562500 1.000000
vt 0.625000 0.875000
vt 0.750000 0.687500
vt 0.750000 0.687500
vt 0.625000 0.875000
vt 0.187500 0.687500
vt 0.250000 0.687500
vt 0.250000 0.750000
vt 0.187500 0.750000
vt 0.437500 0.937500
vt 0.500000 0.937500
vt 0.500000 1.000000
vt 0.437500 1.000000
vt 0.437500 0.062500
vt 0.500000 0.062500
vt 0.500000 0.125000
vt 0.437500 0.125000
vt 0.562500 0.062500
vt 0.625000 0.062500
vt 0.625000 0.125000
vt 0.562500 0.125000
vt 0.500000 0.000000
vt 0.562500 0.000000
vt 0.625000 0.000000
vt 0.375000 0.062500
vt 0.375000 0.125000
vt 0.375000 0.000000
vt 0.437500 0.000000
vt 0.375000 0.937500
vt 0.375000 1.000000
vt 0.375000 0.875000
vt 0.437500 0.875000
vt 0.500000 0.875000
vt 0.625000 0.062500
vt 0.625000 0.125000
vt 0.812500 0.687500
vt 0.812500 0.687500
vt 0.625000 0.000000
vt 0.125000 0.687500
vt 0.125000 0.750000
vt 0.125000 0.625000
vt 0.187500 0.625000
vt 0.250000 0.625000
vt 0.812500 0.625000
vt 0.812500 0.625000
vt 0.625000 0.937500
vt 0.625000 1.000000
vt 0.875000 0.625000
vt 0.875000 0.687500
vt 0.750000 0.625000
vt 0.562500 0.875000
vt 0.812500 0.750000
vt 0.750000 0.750000
vt 0.875000 0.750000
vt 0.562500 0.937500
vt 0.562500 1.000000
vt 0.625000 1.000000
vt 0.625000 0.937500
vt 0.187500 0.687500
vt 0.187500 0.750000
vt 0.437500 0.937500
vt 0.437500 1.000000
vt 0.500000 1.000000
vt 0.500000 0.937500
vt 0.437500 0.062500
vt 0.437500 0.125000
vt 0.500000 0.125000
vt 0.500000 0.062500
vt 0.562500 0.062500
vt 0.562500 0.125000
vt 0.625000 0.125000
vt 0.625000 0.062500
vt 0.500000 0.000000
vt 0.562500 0.000000
vt 0.625000 0.000000
vt 0.375000 0.062500
vt 0.375000 0.125000
vt 0.375000 0.000000
vt 0.437500 0.000000
vt 0.375000 0.937500
vt 0.375000 1.000000
vt 0.625000 0.125000
vt 0.625000 0.062500
vt 0.812500 0.687500
vt 0.812500 0.687500
vt 0.625000 0.000000
vt 0.125000 0.687500
vt 0.125000 0.750000
vt 0.125000 0.625000
vt 0.187500 0.625000
vt 0.812500 0.625000
vt 0.812500 0.625000
vt 0.625000 1.000000
vt 0.625000 0.937500
vt 0.875000 0.687500
vt 0.875000 0.625000
vt 0.812500 0.750000
vt 0.875000 0.750000
vt 0.562500 0.937500
vt 0.562500 1.000000
vt 0.625000 1.000000
vt 0.625000 0.937500
vt 0.625000 0.875000
vt 0.625000 0.875000
vt 0.750000 0.687500
vt 0.750000 0.687500
vt 0.187500 0.687500
vt 0.187500 0.750000
vt 0.250000 0.750000
vt 0.250000 0.687500
vt 0.437500 0.937500
vt 0.437500 1.000000
vt 0.500000 1.000000
vt 0.500000 0.937500
vt 0.437500 0.062500
vt 0.500000 0.062500
vt 0.562500 0.062500
vt 0.625000 0.062500
vt 0.500000 0.000000
vt 0.562500 0.000000
vt 0.625000 0.000000
vt 0.375000 0.062500
vt 0.375000 0.000000
vt 0.437500 0.000000
vt 0.375000 0.937500
vt 0.375000 1.000000
vt 0.375000 0.875000
vt 0.437500 0.875000
vt 0.500000 0.875000
vt 0.625000 0.062500
vt 0.812500 0.687500
vt 0.812500 0.687500
vt 0.625000 0.000000
vt 0.125000 0.687500
vt 0.125000 0.750000
vt 0.625000 1.000000
vt 0.625000 0.937500
vt 0.875000 0.687500
vt 0.562500 0.875000
vt 0.750000 0.750000
vt 0.812500 0.750000
vt 0.875000 0.750000
vt 0.562500 0.937500
vt 0.625000 0.937500
vt 0.625000 1.000000
vt 0.562500 1.000000
vt 0.187500 0.687500
vt 0.187500 0.750000
vt 0.437500 0.937500
vt 0.500000 0.937500
vt 0.500000 1.000000
vt 0.437500 1.000000
vt 0.437500 0.062500
vt 0.500000 0.062500
vt 0.562500 0.062500
vt 0.625000 0.062500
vt 0.500000 0.000000
vt 0.562500 0.000000
vt 0.625000 0.000000
vt 0.375000 0.062500
vt 0.375000 0.000000
vt 0.437500 0.000000
vt 0.375000 0.937500
vt 0.375000 1.000000
vt 0.625000 0.062500
vt 0.812500 0.687500
vt 0.812500 0.687500
vt 0.625000 0.000000
vt 0.125000 0.687500
vt 0.125000 0.750000
vt 0.625000 0.937500
vt 0.625000 1.000000
vt 0.875000 0.687500
vt 0.812500 0.750000
vt 0.875000 0.750000
vn 0.0000 0.0000 1.0000
vn 1.0000 0.0000 0.0000
vn 0.0000 -1.0000 0.0000
vn -1.0000 0.0000 0.0000
vn -0.9749 -0.2226 0.0000
vn 0.0000 0.4158 -0.9094
vn 0.0000 0.0000 -1.0000
vn 0.0000 -0.4158 0.9094
vn 0.0000 1.0000 0.0000
vn 0.9749 0.2226 0.0000
vn 0.9749 -0.2226 0.0000
vn -0.9749 0.2226 0.0000
vn 0.0000 0.4158 0.9094
vn 0.0000 -0.4158 -0.9094
usemtl None
s off
f 40/1/1 17/2/1 2/3/1 16/4/1
f 9/5/2 21/6/2 13/7/2 7/8/2
f 38/9/3 24/10/3 8/11/3 20/12/3
f 37/13/1 27/14/1 4/15/1 18/16/1
f 36/17/4 32/18/4 14/19/4 33/20/4
f 35/21/4 19/22/4 5/23/4 34/24/4
f 32/18/4 35/21/4 34/24/4 14/19/4
f 4/25/4 16/26/4 35/21/4 32/18/4
f 16/26/4 2/27/4 19/22/4 35/21/4
f 15/28/4 36/17/4 33/20/4 3/29/4
f 1/30/4 18/31/4 36/17/4 15/28/4
f 18/31/4 4/25/4 32/18/4 36/17/4
f 20/32/1 37/13/1 18/16/1 1/33/1
f 8/34/1 28/35/1 37/13/1 20/32/1
f 28/35/1 12/36/1 27/14/1 37/13/1
f 5/23/5 19/22/5 25/37/5 22/38/5
f 21/6/6 39/39/6 41/40/6 13/7/6
f 19/22/5 2/27/5 30/41/5 25/37/5
f 15/42/3 38/9/3 20/12/3 1/43/3
f 3/44/3 26/45/3 38/9/3 15/42/3
f 26/45/3 11/46/3 24/10/3 38/9/3
f 23/47/7 5/23/7 22/38/7 6/48/7
f 2/3/8 17/2/8 31/49/8 30/50/8
f 6/48/9 22/51/9 25/52/9 41/40/9
f 17/2/8 9/5/8 7/8/8 31/49/8
f 10/53/9 23/47/9 39/39/9 21/6/9
f 39/39/10 23/47/10 6/48/10 41/40/10
f 27/14/1 40/1/1 16/4/1 4/15/1
f 12/36/1 29/54/1 40/1/1 27/14/1
f 29/54/1 9/5/1 17/2/1 40/1/1
f 21/6/2 9/5/2 29/54/2 12/36/2 28/35/2 8/11/2 24/10/2 11/46/2 10/53/2
f 13/7/9 41/40/9 31/55/9 7/56/9
f 41/40/9 25/52/9 30/57/9 31/55/9
f 10/53/7 11/46/7 26/45/7 3/44/7 33/20/7 14/19/7 34/24/7 5/23/7 23/47/7
f 70/58/1 50/59/1 43/60/1 51/61/1
f 68/62/3 54/63/3 8/11/3 24/10/3
f 67/64/1 52/65/1 45/66/1 59/67/1
f 66/68/2 63/69/2 48/70/2 62/71/2
f 65/72/2 64/73/2 46/74/2 53/75/2
f 62/71/2 48/70/2 64/73/2 65/72/2
f 45/76/2 62/71/2 65/72/2 50/77/2
f 50/77/2 65/72/2 53/75/2 43/78/2
f 49/79/2 44/80/2 63/69/2 66/68/2
f 42/81/2 49/79/2 66/68/2 52/82/2
f 52/82/2 66/68/2 62/71/2 45/76/2
f 54/83/1 42/84/1 52/65/1 67/64/1
f 8/34/1 54/83/1 67/64/1 28/35/1
f 28/35/1 67/64/1 59/67/1 12/36/1
f 46/74/11 55/85/11 57/86/11 53/75/11
f 21/6/6 13/7/6 71/87/6 69/88/6
f 53/75/11 57/86/11 60/89/11 43/78/11
f 49/90/3 42/91/3 54/63/3 68/62/3
f 44/92/3 49/90/3 68/62/3 58/93/3
f 58/93/3 68/62/3 24/10/3 11/46/3
f 56/94/7 47/95/7 55/85/7 46/74/7
f 43/60/8 60/96/8 61/97/8 51/61/8
f 47/95/9 71/87/9 57/98/9 55/99/9
f 51/61/8 61/97/8 7/8/8 9/5/8
f 10/53/9 21/6/9 69/88/9 56/94/9
f 69/88/12 71/87/12 47/95/12 56/94/12
f 59/67/1 45/66/1 50/59/1 70/58/1
f 12/36/1 59/67/1 70/58/1 29/54/1
f 29/54/1 70/58/1 51/61/1 9/5/1
f 13/7/9 7/56/9 61/100/9 71/87/9
f 71/87/9 61/100/9 60/101/9 57/98/9
f 10/53/7 56/94/7 46/74/7 64/73/7 48/70/7 63/69/7 44/92/7 58/93/7 11/46/7
f 100/102/7 81/103/7 73/104/7 82/105/7
f 77/106/2 75/107/2 79/108/2 86/109/2
f 98/110/3 85/111/3 76/112/3 87/113/3
f 97/114/7 83/115/7 74/116/7 89/117/7
f 96/118/4 33/20/4 14/19/4 94/119/4
f 95/120/4 34/24/4 5/23/4 84/121/4
f 94/119/4 14/19/4 34/24/4 95/120/4
f 74/122/4 94/119/4 95/120/4 81/123/4
f 81/123/4 95/120/4 84/121/4 73/124/4
f 80/125/4 3/29/4 33/20/4 96/118/4
f 72/126/4 80/125/4 96/118/4 83/127/4
f 83/127/4 96/118/4 94/119/4 74/122/4
f 85/128/7 72/129/7 83/115/7 97/114/7
f 76/130/7 85/128/7 97/114/7 90/131/7
f 90/131/7 97/114/7 89/117/7 78/132/7
f 5/23/5 22/38/5 88/133/5 84/121/5
f 86/109/13 79/108/13 101/134/13 99/135/13
f 84/121/5 88/133/5 92/136/5 73/124/5
f 80/137/3 72/138/3 85/111/3 98/110/3
f 3/44/3 80/137/3 98/110/3 26/45/3
f 26/45/3 98/110/3 87/113/3 11/46/3
f 73/104/14 92/139/14 93/140/14 82/105/14
f 6/48/9 101/134/9 88/141/9 22/51/9
f 82/105/14 93/140/14 75/107/14 77/106/14
f 10/53/9 86/109/9 99/135/9 23/47/9
f 99/135/10 101/134/10 6/48/10 23/47/10
f 89/117/7 74/116/7 81/103/7 100/102/7
f 78/132/7 89/117/7 100/102/7 91/142/7
f 91/142/7 100/102/7 82/105/7 77/106/7
f 86/109/2 10/53/2 11/46/2 87/113/2 76/112/2 90/131/2 78/132/2 91/142/2 77/106/2
f 79/108/9 75/143/9 93/144/9 101/134/9
f 101/134/9 93/144/9 92/145/9 88/141/9
f 121/146/7 107/147/7 103/148/7 106/149/7
f 119/150/3 87/113/3 76/112/3 110/151/3
f 118/152/7 112/153/7 104/154/7 108/155/7
f 117/156/2 115/157/2 48/70/2 63/69/2
f 116/158/2 109/159/2 46/74/2 64/73/2
f 115/157/2 116/158/2 64/73/2 48/70/2
f 104/160/2 106/161/2 116/158/2 115/157/2
f 106/161/2 103/162/2 109/159/2 116/158/2
f 105/163/2 117/156/2 63/69/2 44/80/2
f 102/164/2 108/165/2 117/156/2 105/163/2
f 108/165/2 104/160/2 115/157/2 117/156/2
f 110/166/7 118/152/7 108/155/7 102/167/7
f 76/130/7 90/131/7 118/152/7 110/166/7
f 90/131/7 78/132/7 112/153/7 118/152/7
f 46/74/11 109/159/11 111/168/11 55/85/11
f 86/109/13 120/169/13 122/170/13 79/108/13
f 109/159/11 103/162/11 113/171/11 111/168/11
f 105/172/3 119/150/3 110/151/3 102/173/3
f 44/92/3 58/93/3 119/150/3 105/172/3
f 58/93/3 11/46/3 87/113/3 119/150/3
f 103/148/14 107/147/14 114/174/14 113/175/14
f 47/95/9 55/99/9 111/176/9 122/170/9
f 107/147/14 77/106/14 75/107/14 114/174/14
f 10/53/9 56/94/9 120/169/9 86/109/9
f 120/169/12 56/94/12 47/95/12 122/170/12
f 112/153/7 121/146/7 106/149/7 104/154/7
f 78/132/7 91/142/7 121/146/7 112/153/7
f 91/142/7 77/106/7 107/147/7 121/146/7
f 79/108/9 122/170/9 114/177/9 75/143/9
f 122/170/9 111/176/9 113/178/9 114/177/9
